<svg width="39" height="24" viewBox="0 0 39 24" fill="none" xmlns="http://www.w3.org/2000/svg">
<path d="M24.4227 21.2318H14.0237V2.54297H24.4227V21.2318Z" fill="#FF5F00"/>
<path d="M14.69 11.8858C14.69 8.09464 16.465 4.71762 19.2292 2.54133C17.2078 0.949915 14.6567 5.68017e-05 11.8842 5.68017e-05C5.32057 5.68017e-05 0 5.32139 0 11.8858C0 18.4502 5.32057 23.7715 11.8842 23.7715C14.6567 23.7715 17.2078 22.8216 19.2292 21.2302C16.465 19.0539 14.69 15.6769 14.69 11.8858Z" fill="#EB001B"/>
<path d="M38.4477 11.8858C38.4477 18.4502 33.1271 23.7715 26.5635 23.7715C23.791 23.7715 21.2399 22.8216 19.2178 21.2302C21.9827 19.0539 23.7578 15.6769 23.7578 11.8858C23.7578 8.09464 21.9827 4.71762 19.2178 2.54133C21.2399 0.949915 23.791 5.68017e-05 26.5635 5.68017e-05C33.1271 5.68017e-05 38.4477 5.32139 38.4477 11.8858Z" fill="#F79E1B"/>
<path d="M8.94286 11.9606C8.94286 11.4414 9.28308 11.0149 9.83902 11.0149C10.3702 11.0149 10.7288 11.423 10.7288 11.9606C10.7288 12.4981 10.3702 12.9063 9.83902 12.9063C9.28308 12.9063 8.94286 12.4798 8.94286 11.9606ZM11.3343 11.9606V10.4837H10.692V10.8423C10.4883 10.5764 10.1792 10.4095 9.7591 10.4095C8.93084 10.4095 8.28153 11.0588 8.28153 11.9606C8.28153 12.8631 8.93084 13.5117 9.7591 13.5117C10.1792 13.5117 10.4883 13.3448 10.692 13.0788V13.4375H11.3343V11.9606ZM33.0373 11.9606C33.0373 11.4414 33.3776 11.0149 33.9335 11.0149C34.4654 11.0149 34.8233 11.423 34.8233 11.9606C34.8233 12.4981 34.4654 12.9063 33.9335 12.9063C33.3776 12.9063 33.0373 12.4798 33.0373 11.9606ZM35.4295 11.9606V9.29757H34.7865V10.8423C34.5828 10.5764 34.2737 10.4095 33.8536 10.4095C33.0253 10.4095 32.376 11.0588 32.376 11.9606C32.376 12.8631 33.0253 13.5117 33.8536 13.5117C34.2737 13.5117 34.5828 13.3448 34.7865 13.0788V13.4375H35.4295V11.9606ZM19.3064 10.9845C19.7201 10.9845 19.9861 11.2441 20.054 11.701H18.5212C18.5898 11.2745 18.8487 10.9845 19.3064 10.9845ZM19.3191 10.4095C18.4533 10.4095 17.8479 11.0397 17.8479 11.9606C17.8479 12.8999 18.4781 13.5117 19.3622 13.5117C19.8071 13.5117 20.2145 13.4007 20.5731 13.0979L20.2584 12.6219C20.0108 12.8193 19.6954 12.931 19.399 12.931C18.9852 12.931 18.6082 12.7393 18.5156 12.2074H20.7089C20.7153 12.1275 20.7217 12.0469 20.7217 11.9606C20.7153 11.0397 20.1466 10.4095 19.3191 10.4095ZM27.074 11.9606C27.074 11.4414 27.4142 11.0149 27.9702 11.0149C28.5014 11.0149 28.86 11.423 28.86 11.9606C28.86 12.4981 28.5014 12.9063 27.9702 12.9063C27.4142 12.9063 27.074 12.4798 27.074 11.9606ZM29.4654 11.9606V10.4837H28.8232V10.8423C28.6188 10.5764 28.3104 10.4095 27.8903 10.4095C27.062 10.4095 26.4127 11.0588 26.4127 11.9606C26.4127 12.8631 27.062 13.5117 27.8903 13.5117C28.3104 13.5117 28.6188 13.3448 28.8232 13.0788V13.4375H29.4654V11.9606ZM23.4469 11.9606C23.4469 12.8568 24.0708 13.5117 25.0228 13.5117C25.4677 13.5117 25.7641 13.4127 26.0852 13.1595L25.7768 12.6403C25.5356 12.8136 25.2824 12.9063 25.0037 12.9063C24.4909 12.8999 24.1139 12.5293 24.1139 11.9606C24.1139 11.3919 24.4909 11.0213 25.0037 11.0149C25.2824 11.0149 25.5356 11.1076 25.7768 11.2809L26.0852 10.7617C25.7641 10.5085 25.4677 10.4095 25.0228 10.4095C24.0708 10.4095 23.4469 11.0644 23.4469 11.9606ZM31.7274 10.4095C31.3568 10.4095 31.1156 10.5828 30.9487 10.8423V10.4837H30.3121V13.4375H30.955V11.7816C30.955 11.2929 31.1651 11.0213 31.5852 11.0213C31.7154 11.0213 31.8512 11.0397 31.987 11.0956L32.185 10.4901C32.0429 10.4342 31.8575 10.4095 31.7274 10.4095ZM14.5108 10.7186C14.2017 10.5149 13.7759 10.4095 13.3062 10.4095C12.5579 10.4095 12.0762 10.7681 12.0762 11.3551C12.0762 11.8368 12.4348 12.1339 13.0955 12.2265L13.3989 12.2697C13.7511 12.3192 13.9174 12.4119 13.9174 12.5788C13.9174 12.8072 13.6825 12.9374 13.244 12.9374C12.7991 12.9374 12.478 12.7952 12.2616 12.6283L11.9588 13.1284C12.3111 13.3879 12.756 13.5117 13.2376 13.5117C14.0907 13.5117 14.5851 13.11 14.5851 12.5477C14.5851 12.0285 14.196 11.7569 13.5531 11.6642L13.2504 11.6204C12.9724 11.5836 12.7496 11.5284 12.7496 11.3304C12.7496 11.1139 12.9597 10.9845 13.3119 10.9845C13.6889 10.9845 14.0539 11.1267 14.2328 11.2377L14.5108 10.7186ZM22.7976 10.4095C22.427 10.4095 22.1858 10.5828 22.0196 10.8423V10.4837H21.383V13.4375H22.0252V11.7816C22.0252 11.2929 22.2353 11.0213 22.6555 11.0213C22.7856 11.0213 22.9214 11.0397 23.0572 11.0956L23.2553 10.4901C23.1131 10.4342 22.9278 10.4095 22.7976 10.4095ZM17.3167 10.4837H16.2663V9.58757H15.617V10.4837H15.0179V11.0708H15.617V12.4182C15.617 13.1036 15.883 13.5117 16.6426 13.5117C16.9213 13.5117 17.2424 13.4254 17.4461 13.2833L17.2608 12.733C17.0691 12.844 16.8591 12.8999 16.6921 12.8999C16.371 12.8999 16.2663 12.7019 16.2663 12.4055V11.0708H17.3167V10.4837ZM7.71356 13.4375V11.5836C7.71356 10.8855 7.26866 10.4158 6.55145 10.4095C6.17445 10.4031 5.78544 10.5205 5.51312 10.935C5.30942 10.6075 4.9883 10.4095 4.53704 10.4095C4.22158 10.4095 3.91319 10.5021 3.672 10.848V10.4837H3.02905V13.4375H3.67765V11.8C3.67765 11.2872 3.96199 11.0149 4.40123 11.0149C4.82774 11.0149 5.04347 11.2929 5.04347 11.7937V13.4375H5.69278V11.8C5.69278 11.2872 5.98914 11.0149 6.41565 11.0149C6.85418 11.0149 7.06425 11.2929 7.06425 11.7937V13.4375H7.71356Z" fill="white"/>
</svg>
