<?xml version="1.0" encoding="utf-8"?>
<!-- Svg Vector Icons : http://www.onlinewebfonts.com/icon -->
<!DOCTYPE svg PUBLIC "-//W3C//DTD SVG 1.1//EN" "http://www.w3.org/Graphics/SVG/1.1/DTD/svg11.dtd">
<svg version="1.1" xmlns="http://www.w3.org/2000/svg" xmlns:xlink="http://www.w3.org/1999/xlink" x="0px" y="0px" viewBox="0 0 1000 1000" enable-background="new 0 0 1000 1000" xml:space="preserve">
<metadata> Svg Vector Icons : http://www.onlinewebfonts.com/icon </metadata>
<g><g transform="translate(0.000000,511.000000) scale(0.100000,-0.100000)"><path d="M4837.7,4080.3c-162.3-74.3-238.5-201.4-709.8-1184.9C3864,2344,3699.7,2123,3557,2123c-89.9,0-350,117.3-477.1,217c-219,168.2-330.4,385.2-359.8,703.9c-27.4,279.6-111.5,416.5-289.4,467.3c-269.8,74.3-537.7-46.9-903.3-410.6c-481-477.1-760.6-1065.6-870.1-1838L624,1037.8L393.3,803.2C139.1,547,100,482.5,100,314.4C100,156,146.9,83.6,397.2-151c971.8-903.3,2164.5-1795,3212.6-2399.2C5314.8-3531.7,6838-3975.6,8191-3881.7C9387.7-3799.6,9898-3430,9900-2647.9c2,336.3-103.6,594.4-344.1,831c-299.2,295.3-584.6,389.1-1370.7,445.8c-125.1,9.8-232.7,78.2-348,224.9c-99.7,129.1-393,606.1-488.8,799.7c-66.5,131-66.5,133-31.3,181.8c109.5,144.7,13.7,332.4-166.2,332.4c-41.1,0-62.5,35.2-162.3,260.1c-117.3,256.1-117.3,258.1-82.1,305c45,54.8,46.9,140.8,7.8,215.1c-25.4,52.8-89.9,89.9-174,103.6c-25.4,3.9-74.3,88-168.1,291.3c-129,283.5-131,287.4-95.8,332.4c21.5,27.4,37.2,80.2,37.2,127.1c0,105.6-64.5,177.9-176,195.5c-78.2,13.7-84.1,19.6-160.3,170.1c-43,88-113.4,213.1-154.5,279.6c-76.3,119.3-232.7,281.6-271.8,281.6c-9.8,0-19.6,13.7-19.6,29.3c0,78.2-209.2,651.1-312.9,860.3c-131,264-244.4,408.7-359.8,461.5C4958.9,4125.2,4939.4,4125.2,4837.7,4080.3z M5035.2,3624.7c91.9-160.3,344.1-983.5,310.9-1014.8c-31.3-29.3-430.2-238.5-592.5-310.9c-185.8-84.1-420.4-166.2-537.7-187.7l-76.3-13.7l29.3,46.9c207.3,314.8,326.5,553.3,682.4,1372.6c45,105.6,93.9,189.7,109.5,189.7C4974.6,3706.8,5007.8,3669.7,5035.2,3624.7z M2325.1,3028.3c3.9-187.7,35.2-303.1,131-504.5c136.9-285.5,373.5-514.2,703.9-680.4c215.1-107.5,398.9-152.5,655-164.3c484.9-21.5,938.5,121.2,1566.2,492.7c134.9,80.2,252.2,146.6,264,144.7c9.8,0,76.3-119.3,150.6-264l131-262l-131-84.1c-74.3-46.9-201.4-127.1-285.5-177.9c-82.1-52.8-168.2-117.3-189.7-142.7c-56.7-74.3-50.8-168.1,17.6-244.4c95.8-107.5,158.4-93.8,481,107.5c148.6,93.9,277.7,164.3,283.5,154.5c41.1-46.9,256.1-557.3,240.5-569c-9.8-5.9-144.7-89.9-297.2-185.8c-152.5-95.8-293.3-195.5-310.9-222.9c-46.9-72.3-37.2-174,27.4-240.5c80.2-84.1,176-78.2,328.5,17.6c66.5,43,189.6,121.2,277.6,176l158.4,97.8l119.3-262l119.3-264l-72.3-45c-39.1-23.5-166.2-103.7-281.6-176c-254.2-160.3-297.2-207.3-283.5-314.8c13.7-103.6,86-166.2,191.6-166.2c62.6,0,125.2,29.3,342.2,166.2c146.6,91.9,269.8,164.2,271.8,162.3c1.9-3.9,41.1-76.3,88-162.3c262-481,484.9-809.5,658.9-967.9c193.6-176,299.2-213.1,680.4-234.6c328.5-17.6,529.9-56.7,707.8-136.9c215.1-97.8,377.4-289.4,408.6-484.9l11.7-78.2l-103.6-21.5c-439.9-95.8-1040.2-148.6-1511.5-133c-940.5,31.3-1839.9,287.4-2944.7,838.8C3729-1204.9,2507-338.7,1318.1,762.1c-316.8,291.3-303.1,260.1-250.3,561.2c138.8,799.7,574.9,1503.6,1108.7,1787.1c66.5,37.1,127.1,62.6,133,58.7C2317.3,3165.2,2323.2,3100.7,2325.1,3028.3z M1322.1,216.6c410.6-365.6,1034.4-864.3,1495.8-1196.7c1640.5-1175.1,3200.8-1865.3,4593-2031.5c496.6-58.7,1255.3-29.3,1824.3,70.4c121.2,21.5,226.8,39.1,234.6,39.1c33.2,0-33.3-125.1-113.4-213.1c-142.8-158.4-381.3-264-741.1-326.5c-236.6-41.1-989.4-58.7-1286.6-29.3C5701.9-3312.7,3819-2417.2,1842.2-860.8c-357.8,281.6-917,758.7-1175.1,1005l-185.8,176l174,177.9l176,176l156.4-150.6C1075.7,441.5,1226.3,302.6,1322.1,216.6z"/><path d="M4081,928.3c-242.5-39.1-504.5-246.4-623.7-486.9c-58.7-117.3-62.6-140.8-62.6-332.4c0-193.6,3.9-215.1,64.5-336.3c162.3-330.4,545.5-545.5,866.2-484.9c443.8,84.1,774.3,518.2,705.9,926.8c-56.7,350-352,649.2-698.1,713.7C4208.1,951.8,4215.9,951.8,4081,928.3z M4397.7,509.9c160.3-68.4,238.5-199.4,238.5-400.8c0-293.3-172.1-447.8-473.2-426.3c-109.5,7.8-152.5,21.5-215.1,66.5c-144.7,101.7-207.3,312.8-150.6,510.3c29.3,107.5,142.7,230.7,236.6,258.1C4135.7,547,4317.6,541.2,4397.7,509.9z"/></g></g>
</svg>